<svg xmlns="http://www.w3.org/2000/svg" version="1.1" xmlns:xlink="http://www.w3.org/1999/xlink" width="200" height="200"><svg xmlns="http://www.w3.org/2000/svg" version="1.1" xmlns:xlink="http://www.w3.org/1999/xlink" viewBox="0 0 200 200"><rect width="200" height="200" fill="url('#gradient')"></rect><defs><linearGradient id="SvgjsLinearGradient1009" gradientTransform="rotate(45 0.5 0.5)"><stop offset="0%" stop-color="#ffffff"></stop><stop offset="100%" stop-color="#ffffff"></stop></linearGradient></defs><g><g fill="#5bae20" transform="matrix(2.3387004681968713,0,0,2.3387004681968713,-1.8733604761499905,117.32030317202624)" stroke="#ffffff" stroke-width="0.2"><path d="M12.71-7.60L12.71-1.76Q11.92-0.88 10.40-0.34Q8.88 0.20 7.06 0.20L7.06 0.20Q4.27 0.20 2.60-1.51Q0.93-3.22 0.81-6.27L0.81-6.27L0.80-7.50Q0.80-9.60 1.54-11.17Q2.29-12.73 3.67-13.58Q5.05-14.42 6.87-14.42L6.87-14.42Q9.52-14.42 10.99-13.21Q12.46-11.99 12.71-9.58L12.71-9.58L9.40-9.58Q9.23-10.77 8.64-11.28Q8.06-11.79 6.98-11.79L6.98-11.79Q5.69-11.79 4.99-10.69Q4.29-9.60 4.28-7.57L4.28-7.57L4.28-6.71Q4.28-4.58 5.00-3.51Q5.73-2.44 7.29-2.44L7.29-2.44Q8.63-2.44 9.29-3.04L9.29-3.04L9.29-5.24L6.90-5.24L6.90-7.60L12.71-7.60ZM23.80 0L20.51 0Q20.33-0.32 20.20-0.95L20.20-0.95Q19.29 0.20 17.66 0.20L17.66 0.20Q16.16 0.20 15.12-0.71Q14.07-1.61 14.07-2.98L14.07-2.98Q14.07-4.70 15.34-5.58Q16.61-6.46 19.03-6.46L19.03-6.46L20.05-6.46L20.05-7.01Q20.05-8.47 18.79-8.47L18.79-8.47Q17.62-8.47 17.62-7.31L17.62-7.31L14.33-7.31Q14.33-8.85 15.63-9.80Q16.93-10.76 18.96-10.76Q20.98-10.76 22.15-9.78Q23.32-8.79 23.35-7.07L23.35-7.07L23.35-2.39Q23.37-0.94 23.80-0.17L23.80-0.17L23.80 0ZM18.45-2.15L18.45-2.15Q19.06-2.15 19.47-2.41Q19.87-2.68 20.05-3.01L20.05-3.01L20.05-4.70L19.09-4.70Q17.37-4.70 17.37-3.15L17.37-3.15Q17.37-2.71 17.68-2.43Q17.98-2.15 18.45-2.15ZM30.70-2.97L30.70-2.97Q30.70-3.39 30.26-3.64Q29.82-3.90 28.59-4.17Q27.36-4.44 26.56-4.89Q25.76-5.33 25.34-5.97Q24.92-6.60 24.92-7.42L24.92-7.42Q24.92-8.88 26.12-9.82Q27.32-10.76 29.27-10.76L29.27-10.76Q31.36-10.76 32.63-9.81Q33.90-8.87 33.90-7.32L33.90-7.32L30.60-7.32Q30.60-8.59 29.26-8.59L29.26-8.59Q28.74-8.59 28.39-8.31Q28.04-8.02 28.04-7.59L28.04-7.59Q28.04-7.15 28.47-6.88Q28.90-6.60 29.84-6.43Q30.78-6.25 31.49-6.01L31.49-6.01Q33.88-5.19 33.88-3.07L33.88-3.07Q33.88-1.62 32.59-0.71Q31.31 0.20 29.27 0.20L29.27 0.20Q27.91 0.20 26.85-0.29Q25.78-0.78 25.19-1.62Q24.59-2.46 24.59-3.39L24.59-3.39L27.67-3.39Q27.69-2.66 28.15-2.32Q28.62-1.98 29.36-1.98L29.36-1.98Q30.03-1.98 30.37-2.26Q30.70-2.53 30.70-2.97ZM35.96-13.19L39.25-13.19L39.25-10.57L40.99-10.57L40.99-8.28L39.25-8.28L39.25-3.45Q39.25-2.85 39.46-2.62Q39.68-2.38 40.31-2.38L40.31-2.38Q40.80-2.38 41.13-2.44L41.13-2.44L41.13-0.09Q40.24 0.20 39.28 0.20L39.28 0.20Q37.58 0.20 36.77-0.61Q35.96-1.41 35.96-3.04L35.96-3.04L35.96-8.28L34.61-8.28L34.61-10.57L35.96-10.57L35.96-13.19ZM52.09-5.36L52.09-5.20Q52.09-2.60 51.02-1.20Q49.94 0.20 47.99 0.20L47.99 0.20Q46.38 0.20 45.39-1.08L45.39-1.08L45.25 0L42.30 0L42.30-15L45.60-15L45.60-9.72Q46.51-10.76 47.97-10.76L47.97-10.76Q49.94-10.76 51.02-9.35Q52.09-7.93 52.09-5.36L52.09-5.36ZM48.79-5.40L48.79-5.40Q48.79-6.92 48.38-7.57Q47.98-8.22 47.14-8.22L47.14-8.22Q46.03-8.22 45.60-7.37L45.60-7.37L45.60-3.17Q46.02-2.33 47.16-2.33L47.16-2.33Q48.32-2.33 48.63-3.47L48.63-3.47Q48.79-4.02 48.79-5.40ZM53.13-4.82L53.13-5.38Q53.13-6.96 53.74-8.20Q54.36-9.43 55.51-10.10Q56.66-10.76 58.21-10.76L58.21-10.76Q60.59-10.76 61.95-9.29Q63.32-7.82 63.32-5.29L63.32-5.29L63.32-5.18Q63.32-2.71 61.95-1.25Q60.58 0.20 58.23 0.20L58.23 0.20Q55.98 0.20 54.61-1.16Q53.24-2.51 53.13-4.82L53.13-4.82ZM56.43-5.77L56.42-5.18Q56.42-3.71 56.88-3.03Q57.33-2.34 58.23-2.34L58.23-2.34Q59.99-2.34 60.03-5.05L60.03-5.05L60.03-5.38Q60.03-8.22 58.21-8.22L58.21-8.22Q56.56-8.22 56.43-5.77L56.43-5.77ZM64.37-4.82L64.36-5.38Q64.36-6.96 64.97-8.20Q65.59-9.43 66.74-10.10Q67.89-10.76 69.44-10.76L69.44-10.76Q71.82-10.76 73.18-9.29Q74.55-7.82 74.55-5.29L74.55-5.29L74.55-5.18Q74.55-2.71 73.18-1.25Q71.81 0.20 69.46 0.20L69.46 0.20Q67.21 0.20 65.84-1.16Q64.47-2.51 64.37-4.82L64.37-4.82ZM67.66-5.77L67.65-5.18Q67.65-3.71 68.11-3.03Q68.56-2.34 69.46-2.34L69.46-2.34Q71.22-2.34 71.26-5.05L71.26-5.05L71.26-5.38Q71.26-8.22 69.44-8.22L69.44-8.22Q67.79-8.22 67.66-5.77L67.66-5.77ZM82.55 0L80.24-3.94L79.32-3.01L79.32 0L76.03 0L76.03-15.01L79.32-15.01L79.32-7.04L79.65-7.48L82.13-10.57L86.07-10.57L82.37-6.22L86.32 0L82.55 0Z"></path></g></g></svg><style>@media (prefers-color-scheme: light) { :root { filter: none; } }
@media (prefers-color-scheme: dark) { :root { filter: none; } }
</style></svg>